<?xml version="1.0" encoding="utf-8"?>
<!-- Generator: Adobe Illustrator 22.0.1, SVG Export Plug-In . SVG Version: 6.00 Build 0)  -->
<svg version="1.1" id="Layer_1" xmlns="http://www.w3.org/2000/svg" xmlns:xlink="http://www.w3.org/1999/xlink" x="0px" y="0px"
	 viewBox="0 0 76.4 89.4" style="enable-background:new 0 0 76.4 89.4;" xml:space="preserve">
<g>
	<path d="M62.2,48.7H9.8c-5.4,0-9.8-4.4-9.8-9.8c0-5.1,3.9-9.3,8.9-9.8c1.1-6.6,6.5-11.5,13.2-11.9C23.8,7.3,32.4,0,42.5,0
		c9.6,0,17.8,6.5,20.1,15.7c0.1,0.5-0.2,1.1-0.7,1.2c-0.5,0.1-1.1-0.2-1.2-0.7C58.6,7.8,51.1,2,42.5,2C33.1,2,25.2,9,24,18.3
		c-0.1,0.5-0.5,0.9-1,0.9c-6.3,0-11.5,4.7-12.2,11c-0.1,0.5-0.5,0.9-1,0.9C5.5,31,2,34.5,2,38.8s3.5,7.8,7.8,7.8h52.4
		c6.7,0,12.2-5.5,12.2-12.2S69,22.2,62.2,22.2c-4.3,0-8.4,2.3-10.6,6.1c-0.4,0.6-0.7,1.3-0.9,2c-0.2,0.5-0.8,0.8-1.3,0.6
		c-0.5-0.2-0.8-0.8-0.6-1.3c0.3-0.8,0.7-1.6,1.1-2.4c2.5-4.4,7.3-7.1,12.3-7.1c7.8,0,14.2,6.4,14.2,14.2
		C76.4,42.3,70.1,48.7,62.2,48.7z"/>
</g>
<g>
	<path d="M6.6,85.1c0-2.5,1.9-4.3,4.4-4.3c1.2,0,2.3,0.4,3.1,1.2l-0.6,0.6c-0.7-0.7-1.5-1-2.5-1c-2,0-3.5,1.5-3.5,3.5
		c0,2,1.5,3.5,3.5,3.5c1,0,1.8-0.3,2.5-1l0.6,0.6c-0.7,0.8-1.8,1.2-3.1,1.2C8.5,89.4,6.6,87.6,6.6,85.1z"/>
	<path d="M18.4,80.9h0.9v7.6H24v0.8h-5.6V80.9z"/>
	<path d="M26.9,85.1c0-2.4,1.9-4.3,4.4-4.3c2.5,0,4.4,1.8,4.4,4.3c0,2.5-1.9,4.3-4.4,4.3C28.8,89.4,26.9,87.6,26.9,85.1z M34.9,85.1
		c0-2-1.5-3.5-3.5-3.5c-2,0-3.5,1.5-3.5,3.5s1.5,3.5,3.5,3.5C33.4,88.6,34.9,87.1,34.9,85.1z"/>
	<path d="M40.1,85.7v-4.8H41v4.8c0,2,0.9,2.9,2.6,2.9c1.6,0,2.6-0.9,2.6-2.9v-4.8H47v4.8c0,2.4-1.3,3.7-3.4,3.7
		C41.4,89.4,40.1,88.2,40.1,85.7z"/>
	<path d="M52.1,80.9h3.4c2.7,0,4.5,1.7,4.5,4.2s-1.8,4.2-4.5,4.2h-3.4V80.9z M55.4,88.6c2.2,0,3.7-1.4,3.7-3.4c0-2-1.4-3.4-3.7-3.4
		H53v6.9H55.4z"/>
	<path d="M63.6,88.3l0.3-0.7c0.6,0.6,1.7,1,2.8,1c1.6,0,2.3-0.7,2.3-1.5c0-2.3-5.2-0.9-5.2-4c0-1.2,1-2.3,3.1-2.3
		c0.9,0,1.9,0.3,2.6,0.7l-0.3,0.7c-0.7-0.5-1.6-0.7-2.3-0.7c-1.5,0-2.2,0.7-2.2,1.5c0,2.3,5.2,0.9,5.2,4c0,1.2-1,2.3-3.1,2.3
		C65.4,89.4,64.2,89,63.6,88.3z"/>
</g>
</svg>
